<svg xmlns="http://www.w3.org/2000/svg" viewBox="0 0 128 128" role="img" aria-label="Gato tigrado">
  <circle cx="64" cy="64" r="64" fill="#F3E6D4"/>
  <ellipse cx="64" cy="78" rx="34" ry="28" fill="#C4A574"/>
  <path d="M28 52 L40 22 L52 52 Z" fill="#C4A574"/>
  <path d="M76 52 L88 22 L100 52 Z" fill="#C4A574"/>
  <path d="M34 48 L40 30 L46 48 Z" fill="#E8C9A0"/>
  <path d="M82 48 L88 30 L94 48 Z" fill="#E8C9A0"/>
  <path d="M44 58 L48 88" stroke="#8B6B3E" stroke-width="3" stroke-linecap="round"/>
  <path d="M58 56 L60 90" stroke="#8B6B3E" stroke-width="3" stroke-linecap="round"/>
  <path d="M70 56 L68 90" stroke="#8B6B3E" stroke-width="3" stroke-linecap="round"/>
  <path d="M84 58 L80 88" stroke="#8B6B3E" stroke-width="3" stroke-linecap="round"/>
  <circle cx="50" cy="72" r="5" fill="#3D3344"/>
  <circle cx="78" cy="72" r="5" fill="#3D3344"/>
  <ellipse cx="64" cy="86" rx="5" ry="3.5" fill="#E89A8A"/>
  <path d="M64 86 Q52 94 46 90" fill="none" stroke="#3D3344" stroke-width="2" stroke-linecap="round"/>
  <path d="M64 86 Q76 94 82 90" fill="none" stroke="#3D3344" stroke-width="2" stroke-linecap="round"/>
</svg>
